<?xml version="1.0" encoding="UTF-8"?>
<!--Generator: Apple Native CoreSVG 175.5-->
<!DOCTYPE svg
PUBLIC "-//W3C//DTD SVG 1.1//EN"
       "http://www.w3.org/Graphics/SVG/1.1/DTD/svg11.dtd">
<svg version="1.1" xmlns="http://www.w3.org/2000/svg" xmlns:xlink="http://www.w3.org/1999/xlink" width="26.6895" height="18.2812">
 <g>
  <rect height="18.2812" opacity="0" width="26.6895" x="0" y="0"/>
  <path d="M13.3496 17.5146C15.166 17.5146 16.8262 17.1924 18.3398 16.6748L17.0605 15.3955C15.8984 15.7568 14.668 15.9717 13.3496 15.9717C6.91406 15.9717 1.70898 10.5225 1.70898 9.14551C1.70898 8.46191 3.51562 6.18652 6.39648 4.45801L5.18555 3.24707C1.93359 5.25879 0 7.96387 0 9.14551C0 11.1377 5.55664 17.5146 13.3496 17.5146ZM13.3496 0.776367C11.6504 0.776367 10.1074 1.06934 8.67188 1.54785L9.96094 2.82715C11.0352 2.50488 12.1387 2.31934 13.3496 2.31934C19.7754 2.31934 24.9805 7.9834 24.9805 9.14551C24.9805 9.93652 23.2715 12.0654 20.5664 13.7256L21.7676 14.9268C24.8535 12.9248 26.6895 10.2979 26.6895 9.14551C26.6895 7.14355 21.2402 0.776367 13.3496 0.776367ZM13.3496 14.6143C14.209 14.6143 15.0195 14.3994 15.7422 14.0479L8.41797 6.72363C8.05664 7.44629 7.85156 8.2666 7.85156 9.14551C7.86133 12.124 10.293 14.6143 13.3496 14.6143ZM18.3594 11.2842C18.6621 10.6299 18.8281 9.89746 18.8281 9.14551C18.8281 6.08887 16.3867 3.67676 13.3496 3.67676C12.5781 3.67676 11.8555 3.84277 11.2012 4.12598ZM20.9473 17.6025C21.2402 17.9053 21.709 17.9248 22.0117 17.6025C22.334 17.2803 22.3047 16.8408 22.0117 16.5381L5.68359 0.219727C5.39062-0.0732422 4.91211-0.0732422 4.60938 0.219727C4.32617 0.50293 4.32617 1.00098 4.60938 1.28418Z" fill="#9ca4ab"/>
 </g>
</svg>
