<svg width="48" height="48" viewBox="0 0 48 48" fill="none" xmlns="http://www.w3.org/2000/svg">
<circle opacity="0.08" cx="24" cy="24" r="24" fill="#FEFEFE"/>
<path d="M32 24.4848C32 24.8645 31.7178 25.1783 31.3518 25.228L31.25 25.2348L18.066 25.2342L22.829 29.9777C23.1225 30.27 23.1235 30.7449 22.8313 31.0384C22.5656 31.3052 22.149 31.3303 21.8549 31.1131L21.7706 31.0407L15.7206 25.0167C15.6819 24.9782 15.6483 24.9365 15.6198 24.8924C15.6117 24.8792 15.6035 24.8656 15.5958 24.8518C15.5886 24.8399 15.5822 24.8276 15.5761 24.8152C15.5676 24.7971 15.5593 24.7784 15.5518 24.7593C15.5457 24.7445 15.5406 24.7302 15.536 24.7158C15.5304 24.6979 15.5251 24.6788 15.5204 24.6595C15.517 24.646 15.5143 24.6329 15.5119 24.6199C15.5086 24.6005 15.5057 24.5804 15.5037 24.56C15.502 24.5445 15.5009 24.5291 15.5003 24.5137C15.5002 24.5044 15.5 24.4946 15.5 24.4848L15.5004 24.4558C15.5009 24.441 15.502 24.4263 15.5034 24.4117L15.5 24.4848C15.5 24.4375 15.5044 24.3912 15.5128 24.3463C15.5147 24.3356 15.517 24.3245 15.5196 24.3136C15.5249 24.291 15.5311 24.2693 15.5382 24.2479C15.5416 24.2374 15.5457 24.226 15.55 24.2148C15.5588 24.1922 15.5683 24.1707 15.5788 24.1498C15.5837 24.1399 15.5891 24.1296 15.5948 24.1194C15.6042 24.1027 15.6139 24.0869 15.6241 24.0715C15.6313 24.0606 15.6393 24.0492 15.6476 24.038L15.6541 24.0294C15.6743 24.003 15.6962 23.9779 15.7197 23.9545L15.7206 23.9538L21.7706 17.9288C22.0641 17.6365 22.5389 17.6375 22.8312 17.931C23.0969 18.1978 23.1203 18.6145 22.9018 18.9077L22.829 18.9916L18.068 23.7342L31.25 23.7348C31.6642 23.7348 32 24.0706 32 24.4848Z" fill="#FEFEFE"/>
</svg>
